# xmcd
#
# Track frame offsets:
#	150
#	19952
#	37301
#	52617
#	69521
#	89789
#	108564
#	121977
#	140533
#	158923
#
# Disc length: 2331 seconds
#
# Revision: 2
# Processed by: cddbd v1.5.2PL0 Copyright (c) Steve Scherf et al.
# Submitted via: EasyCDDAExtractor 9.0.0.1
#
DISCID=8d09190a
DTITLE=МИРАЖ - Старое по-новому
DYEAR=2004
DGENRE=Dance
TTITLE0=Музыка нас связала
TTITLE1=Наступает ночь
TTITLE2=Звёзды нас ждут
TTITLE3=Снова вместе
TTITLE4=Я снова вижу тебя
TTITLE5=Ты словно тень
TTITLE6=Снежинка
TTITLE7=Эхо
TTITLE8=Эта ночь
TTITLE9=Новый герой
EXTD=
EXTT0=
EXTT1=
EXTT2=
EXTT3=
EXTT4=
EXTT5=
EXTT6=
EXTT7=
EXTT8=
EXTT9=
PLAYORDER=
